<?xml version="1.0" encoding="UTF-8"?>
<!--
  - Copyright (c) 2023-2024 Rafael Fernandez.
  -
  - This file is part of VigurVM.
  -
  - VigurVM is free software: you can redistribute it and/or modify it under the terms of the
  - GNU General Public License as published by the Free Software Foundation,
  - either version 3 of the License, or (at your option) any later version.
  - VigurVM is distributed in the hope that it will be useful, but WITHOUT ANY WARRANTY;
  - without even the implied warranty of MERCHANTABILITY or FITNESS FOR A PARTICULAR PURPOSE.
  - See the GNU General Public License for more details.
  - You should have received a copy of the GNU General Public License along with VigurVM.
  - If not, see <https://www.gnu.org/licenses/>.
  -->

<!-- Created with Inkscape (http://www.inkscape.org/) -->
<svg width="256" height="256" version="1.1" viewBox="0 0 67.733 67.733" xmlns="http://www.w3.org/2000/svg"><path d="m33.867 4.101a29.766 29.766 0 0 0-29.766 29.766 29.766 29.766 0 0 0 29.766 29.766 29.766 29.766 0 0 0 29.766-29.766 29.766 29.766 0 0 0-29.766-29.766zm0 3.9688a25.797 25.797 0 0 1 25.797 25.797 25.797 25.797 0 0 1-4.0462 13.726 32.874 16.136 0 0 0-6.4333-2.1537c-5.4545 6.5887-15.395 2.6291-25.603 12.252-1.7374-0.76321-3.3856-1.7158-4.9142-2.8405 8.8739-8.2177 22.445-5.6412 28.322-9.9176a32.874 16.136 0 0 0-8.2004-1.1448l-1.5376-3.4197h4.4804v-1.1157l1.0222 1.0222-0.09355 0.09353 0.46768 0.46767 0.09352-0.09354 0.09355 0.09354 0.46768-0.46767-0.09355-0.09353 1.3096-1.3097 0.09365 0.09366 0.46768-0.4678-0.09352-0.09353 1.3096-1.3096 0.09355 0.09353 0.46765-0.46767-0.09352-0.09354 0.09352-0.09353-0.46765-0.4678-0.09355 0.09354-1.7774-1.7773 0.09365-0.09353-0.4678-0.4678-0.09352 0.09353-1.7773-1.7773 0.09352-0.09353-0.4678-0.4678-0.09352 0.09367-0.55438-0.55436v-3.1272h1.8126l-3.2937-2.8891 0.3518-0.35166-0.09355-0.09354 1.7773-1.7774 0.09352 0.09354 0.4678-0.46767-0.09352-0.09353 1.7773-1.7774 0.09352 0.09353 0.4678-0.46767-0.09365-0.09353 1.7774-1.7773 0.09355 0.09353 0.46765-0.4678-0.09352-0.09353 0.09352-0.09353-0.46765-0.46767-0.09355 0.09353-1.3096-1.3096 0.09352-0.09353-0.46768-0.4678-0.09365 0.09353-1.3096-1.3096 0.09355-0.09353-0.46768-0.46767-0.09355 0.09353-0.09352-0.09353-0.4678 0.46767 0.09368 0.09353-1.7774 1.7774-0.09352-0.09353-0.46768 0.46767 0.09352 0.09353-1.7774 1.7774-0.09355-0.09366-0.46765 0.4678 0.09352 0.09353-1.7774 1.7773-0.09355-0.09354-0.46768 0.4678 0.09355 0.09353-0.09355 0.09353 0.46768 0.46767 0.09355-0.09354 1.3096 1.3096-0.03695 0.03695-3.8919-3.4137-3.8919 3.4137-0.03693-0.03695 1.3096-1.3096 0.09352 0.09354 0.4678-0.46767-0.09365-0.09353 0.09365-0.09353-0.4678-0.4678-0.09352 0.09354-1.7774-1.7773 0.09367-0.09353-0.4678-0.4678-0.09352 0.09366-1.7773-1.7774 0.09355-0.09353-0.4678-0.46767-0.09355 0.09353-1.7773-1.7774 0.09353-0.09353-0.46765-0.46767-0.09355 0.09353-0.09365-0.09353-0.46768 0.46767 0.09352 0.09353-1.3096 1.3096-0.09355-0.09353-0.46765 0.4678 0.09352 0.09353-1.3096 1.3096-0.09365-0.09353-0.46768 0.46767 0.09352 0.09353-0.09352 0.09353 0.46768 0.4678 0.09365-0.09353 1.7773 1.7773-0.09355 0.09353 0.46768 0.46767 0.09355-0.09353 1.7774 1.7774-0.09352 0.09353 0.46768 0.46767 0.09352-0.09354 1.7774 1.7774-0.09352 0.09354 0.35165 0.35166-3.2937 2.8891h1.8126v3.1272l-0.55435 0.55436-0.09352-0.09367-0.46768 0.4678 0.09352 0.09353-1.7774 1.7773-0.09355-0.09353-0.46768 0.4678 0.09355 0.09353-1.7773 1.7773-0.09365-0.09354-0.46768 0.4678 0.09352 0.09353-0.09352 0.09354 0.46768 0.46767 0.09365-0.09353 1.3096 1.3096-0.09352 0.09353 0.46765 0.4678 0.09355-0.09366 1.3096 1.3097-0.09352 0.09353 0.46768 0.46767 0.09365-0.09354 0.09355 0.09354 0.46765-0.46767-0.09353-0.09353 1.022-1.0222v1.1157h4.4805l-1.5265 3.3949a32.874 16.136 0 0 0-16.84 3.8297 25.797 25.797 0 0 1-4.0462-13.726 25.797 25.797 0 0 1 25.797-25.797zm-9.3543 6.8542 1.7773 1.7773-1.3096 1.3096-1.7774-1.7773zm18.709 0 1.3096 1.3096-1.7773 1.7773-1.3098-1.3096zm-20.486 1.7773 1.7774 1.7774-1.3097 1.3096-1.7773-1.7774zm22.263 0 1.3097 1.3096-1.7774 1.7774-1.3096-1.3096zm-18.241 0.46767 1.7774 1.7774-1.3096 1.3096-1.7774-1.7773zm14.219 0 1.3096 1.3097-1.7773 1.7773-1.3096-1.3096zm-15.996 1.7774 1.7773 1.7773-1.3096 1.3096-1.7773-1.7773zm17.773 0 1.3096 1.3096-1.7774 1.7773-1.3096-1.3096zm-13.751 0.46767 1.7774 1.7774-1.3098 1.3096-1.7773-1.7774zm9.7286 0 1.3096 1.3096-1.7773 1.7774-1.3096-1.3096zm-11.506 1.7774 1.7773 1.7773-1.3096 1.3096-1.7773-1.7773zm13.283 0 1.3096 1.3096-1.7774 1.7773-1.3096-1.3096zm-11.038 2.2451 0.0063 0.0063-0.10375 0.09108zm8.7933 0 0.09755 0.09754-0.10388-0.09121zm-2.174 5.2679h1.8601v2.2758h-1.8601zm-6.3052 0.04871h1.8601v2.2758h-1.8601zm2.3849 3.2517h3.3954v6.7023h-3.3954zm9.5623 0.13811 0.0867 0.08669-0.0867 0.08669zm-15.729 1.27e-4v0.17312l-0.08655-0.08656zm-0.55435 0.55423 0.55435 0.55436v1.5105l-1.022 1.0222-1.3096-1.3096zm16.838 0 1.7774 1.7774-1.3096 1.3096-1.0222-1.0222v-1.5105zm-19.083 2.2451 1.3097 1.3096-1.7774 1.7774-1.3096-1.3096zm21.328 0 1.7774 1.7774-1.3097 1.3096-1.7773-1.7774zm-18.529 0.75525v1.1087l-0.55435-0.55436zm15.729 0 0.55438 0.55436-0.55438 0.55436zm-16.751 1.0222 1.022 1.022v0.57516l-1.4898 1.4897-1.3096-1.3096zm17.773 0 1.7773 1.7773-1.3096 1.3096-1.4898-1.4897v-0.57516z"/></svg>
